<?xml version="1.0" standalone="no"?>
<!DOCTYPE svg PUBLIC "-//W3C//DTD SVG 20010904//EN"
 "http://www.w3.org/TR/2001/REC-SVG-20010904/DTD/svg10.dtd">
<svg version="1.0" xmlns="http://www.w3.org/2000/svg"
 width="347.000000pt" height="347.000000pt" viewBox="0 0 347.000000 347.000000"
 preserveAspectRatio="xMidYMid meet">
<metadata>
Created by potrace 1.14, written by Peter Selinger 2001-2017
</metadata>
<g transform="translate(0.000000,347.000000) scale(0.100000,-0.100000)"
fill="#000000" stroke="none">
<path d="M2117 2978 c-254 -37 -408 -350 -306 -623 39 -106 122 -194 226 -243
50 -23 70 -27 148 -26 78 1 98 5 149 29 110 53 208 180 235 303 8 39 7 185 -2
222 -43 180 -187 321 -347 339 -30 4 -77 3 -103 -1z"/>
<path d="M1175 2949 c-176 -31 -316 -170 -353 -353 -9 -43 -8 -165 1 -206 11
-52 45 -132 73 -175 89 -138 213 -213 362 -220 124 -5 221 33 306 119 95 95
137 213 131 361 -7 158 -77 290 -211 395 -23 18 -98 55 -134 65 -45 14 -135
21 -175 14z"/>
<path d="M2825 2404 c-97 -31 -198 -122 -250 -223 -61 -120 -57 -294 10 -406
52 -88 156 -158 252 -168 259 -27 483 243 432 520 -21 110 -101 217 -197 261
-69 31 -177 38 -247 16z"/>
<path d="M554 2159 c-179 -33 -299 -181 -289 -357 13 -214 210 -391 435 -392
302 -1 464 294 303 553 -87 140 -285 226 -449 196z"/>
<path d="M1733 2019 c-203 -39 -400 -161 -480 -296 -21 -36 -57 -143 -93 -278
-5 -16 -24 -84 -43 -150 -154 -529 -149 -508 -143 -565 7 -72 19 -112 52 -168
57 -97 156 -166 272 -191 161 -34 307 13 446 145 88 83 134 114 217 147 156
62 268 77 390 52 125 -26 217 -21 309 15 172 68 282 222 282 395 0 108 -48
221 -117 276 -11 10 -117 99 -235 199 -118 101 -263 223 -321 273 -103 87
-172 127 -249 142 -54 11 -240 14 -287 4z"/>
</g>
</svg>
